<svg xmlns="http://www.w3.org/2000/svg" x="0px" y="0px" width="30" height="30" viewBox="0 0 192 192" style=" fill:#000000;"><g fill="none" fill-rule="nonzero" stroke="none" stroke-width="1" stroke-linecap="butt" stroke-linejoin="miter" stroke-miterlimit="10" stroke-dasharray="" stroke-dashoffset="0" font-family="none" font-weight="none" font-size="none" text-anchor="none" style="mix-blend-mode: normal"><path d="M0,192v-192h192v192z" fill="none"></path><g fill="#ffffff"><g id="surface1"><path d="M96,11.52c-12.675,0 -23.04,10.365 -23.04,23.04c0,12.675 10.365,23.04 23.04,23.04c12.675,0 23.04,-10.365 23.04,-23.04c0,-12.675 -10.365,-23.04 -23.04,-23.04zM96,72.96c-12.675,0 -23.04,10.365 -23.04,23.04c0,12.675 10.365,23.04 23.04,23.04c12.675,0 23.04,-10.365 23.04,-23.04c0,-12.675 -10.365,-23.04 -23.04,-23.04zM96,134.4c-12.675,0 -23.04,10.365 -23.04,23.04c0,12.675 10.365,23.04 23.04,23.04c12.675,0 23.04,-10.365 23.04,-23.04c0,-12.675 -10.365,-23.04 -23.04,-23.04z"></path></g></g></g></svg>
