<?xml version="1.0" encoding="utf-8"?>
<!-- Generator: Adobe Illustrator 19.2.1, SVG Export Plug-In . SVG Version: 6.00 Build 0)  -->
<svg version="1.1" id="图层_1" xmlns="http://www.w3.org/2000/svg" xmlns:xlink="http://www.w3.org/1999/xlink" x="0px" y="0px"
	 viewBox="0 0 24 24.1" style="enable-background:new 0 0 24 24.1;" xml:space="preserve">
<style type="text/css">
	.st0{fill:#7039DA;}
</style>
<rect x="15.9" y="15.6" transform="matrix(2.835846e-011 1 -1 2.835846e-011 35.5791 1.8193)" class="st0" width="2" height="6.1"/>
<path class="st0" d="M21.3,12v9.8H2V10.1h11.8v-2H3c-1.7,0-3,1.3-3,3v9.6c0,1.7,1.3,3,3,3h17.3c1.6,0,3-1.3,3-3V12H21.3z"/>
<rect x="17.7" y="0.7" transform="matrix(4.574012e-011 1 -1 4.574012e-011 24.4076 -13.0753)" class="st0" width="2" height="9.9"/>
<rect x="17.8" y="0.7" class="st0" width="2" height="9.9"/>
<path class="st0" d="M10.6,11.9H4.8c-0.5,0-1,0.5-1,1v5.9c0,0.5,0.5,1,1,1h5.8c0.5,0,1-0.5,1-1v-5.9C11.6,12.4,11.2,11.9,10.6,11.9z
	 M9.7,17.9h-4v-4h4V17.9z"/>
</svg>
