<svg xmlns="http://www.w3.org/2000/svg" xmlns:xlink="http://www.w3.org/1999/xlink" width="24" height="24.107" viewBox="0 0 24 24.107"><defs><style>.a,.c,.d{fill:none;}.b{clip-path:url(#a);}.c{stroke:#7039da;stroke-miterlimit:10;stroke-width:2px;}.d{opacity:0;}</style><clipPath id="a"><rect class="a" width="24" height="24.107"/></clipPath></defs><g class="b"><g transform="translate(1.668 1.2)"><path class="c" d="M18.956,4.436a9.66,9.66,0,1,1-1.794-1.26" transform="translate(-2.78 -2)"/><line class="c" x1="5.238" y1="5.238" transform="translate(16.368 16.962)"/></g><g transform="translate(8.958 4.338)"><g transform="translate(0 1.212)"><path class="c" d="M19.322,10.1A2.493,2.493,0,0,0,17.45,9.25a2.568,2.568,0,0,0,0,5.136" transform="translate(-14.93 -9.25)"/><path class="c" d="M16.13,22.164a2.478,2.478,0,0,0,1.794.762,2.568,2.568,0,0,0,0-5.136" transform="translate(-15.41 -12.666)"/></g><line class="c" y2="1.212" transform="translate(2.514)"/><line class="c" y2="1.212" transform="translate(2.514 11.514)"/></g><rect class="d" width="24" height="24"/></g></svg>