<svg xmlns="http://www.w3.org/2000/svg" xmlns:xlink="http://www.w3.org/1999/xlink" width="24" height="24.104" viewBox="0 0 24 24.104"><defs><style>.a,.c,.d{fill:none;}.b{clip-path:url(#a);}.c{stroke:#7039da;stroke-miterlimit:10;stroke-width:2px;}.d{opacity:0;}</style><clipPath id="a"><rect class="a" width="24" height="24.104"/></clipPath></defs><g class="b" transform="translate(0 0)"><g transform="translate(8.386 8.103)"><path class="c" d="M25.263,15.327a6.646,6.646,0,1,1-1.237-.869" transform="translate(-14.12 -13.65)"/><line class="c" x1="3.608" y1="3.608" transform="translate(11.276 11.686)"/></g><path class="c" d="M17.105,22.467H3.428A1.063,1.063,0,0,1,2.36,21.406V3.281A1.063,1.063,0,0,1,3.428,2.22H17.105a1.063,1.063,0,0,1,1.068,1.061v6" transform="translate(-0.936 -0.881)"/><g transform="translate(3.505 6.852)"><line class="c" x2="8.392"/></g><g transform="translate(3.505 11.052)"><line class="c" x2="6.148"/></g><rect class="d" width="24" height="24"/></g></svg>